{"settings": {}, "history": {"undo": [{"type": "update", "key": ["scale"], "value": 276, "partial": false, "old_values": 174}, {"type": "update", "key": ["scale"], "value": 356, "partial": false, "old_values": 276}, {"type": "update", "key": ["scale"], "value": 445, "partial": false, "old_values": 356}, {"type": "update", "key": ["scale"], "value": 542, "partial": false, "old_values": 445}, {"type": "update", "key": ["scale"], "value": 445, "partial": false, "old_values": 542}, {"type": "update", "key": ["scale"], "value": 356, "partial": false, "old_values": 445}, {"type": "update", "key": ["scale"], "value": 276, "partial": false, "old_values": 356}, {"type": "update", "key": ["scale"], "value": 205, "partial": false, "old_values": 276}, {"type": "update", "key": ["scale"], "value": 174, "partial": false, "old_values": 205}, {"type": "update", "key": ["scale"], "value": 118, "partial": false, "old_values": 174}, {"type": "update", "key": ["scale"], "value": 94, "partial": false, "old_values": 118}, {"type": "update", "key": ["scale"], "value": 54, "partial": false, "old_values": 94}, {"type": "update", "key": ["scale"], "value": 24, "partial": false, "old_values": 54}, {"type": "update", "key": ["scale"], "value": 14, "partial": false, "old_values": 24}, {"type": "update", "key": ["scale"], "value": 7, "partial": false, "old_values": 14}, {"type": "update", "key": ["scale"], "value": 1, "partial": false, "old_values": 7}, {"type": "update", "key": ["clips", {"id": "SC4OJLFPDB"}], "value": {"alpha": {"Points": [{"co": {"X": 1.0, "Y": 1.0}, "handle_left": {"X": 0.5, "Y": 1.0}, "handle_right": {"X": 0.5, "Y": 0.0}, "handle_type": 0, "interpolation": 0}]}, "anchor": 0, "channel_filter": {"Points": [{"co": {"X": 1.0, "Y": -1.0}, "interpolation": 2}]}, "channel_mapping": {"Points": [{"co": {"X": 1.0, "Y": -1.0}, "interpolation": 2}]}, "crop_height": {"Points": [{"co": {"X": 1.0, "Y": -1.0}, "interpolation": 2}]}, "crop_width": {"Points": [{"co": {"X": 1.0, "Y": -1.0}, "interpolation": 2}]}, "crop_x": {"Points": [{"co": {"X": 1.0, "Y": 0.0}, "interpolation": 2}]}, "crop_y": {"Points": [{"co": {"X": 1.0, "Y": 0.0}, "interpolation": 2}]}, "display": 0, "duration": 61.0, "effects": [], "end": 59.53, "gravity": 4, "has_audio": {"Points": [{"co": {"X": 1.0, "Y": -1.0}, "interpolation": 2}]}, "has_video": {"Points": [{"co": {"X": 1.0, "Y": -1.0}, "interpolation": 2}]}, "id": "SC4OJLFPDB", "layer": 3, "location_x": {"Points": [{"co": {"X": 1.0, "Y": 0.0}, "interpolation": 2}]}, "location_y": {"Points": [{"co": {"X": 1.0, "Y": 0.0}, "interpolation": 2}]}, "mixing": 0, "perspective_c1_x": {"Points": [{"co": {"X": 1.0, "Y": -1.0}, "interpolation": 2}]}, "perspective_c1_y": {"Points": [{"co": {"X": 1.0, "Y": -1.0}, "interpolation": 2}]}, "perspective_c2_x": {"Points": [{"co": {"X": 1.0, "Y": -1.0}, "interpolation": 2}]}, "perspective_c2_y": {"Points": [{"co": {"X": 1.0, "Y": -1.0}, "interpolation": 2}]}, "perspective_c3_x": {"Points": [{"co": {"X": 1.0, "Y": -1.0}, "interpolation": 2}]}, "perspective_c3_y": {"Points": [{"co": {"X": 1.0, "Y": -1.0}, "interpolation": 2}]}, "perspective_c4_x": {"Points": [{"co": {"X": 1.0, "Y": -1.0}, "interpolation": 2}]}, "perspective_c4_y": {"Points": [{"co": {"X": 1.0, "Y": -1.0}, "interpolation": 2}]}, "position": 41.709062499999995, "rotation": {"Points": [{"co": {"X": 1.0, "Y": 0.0}, "interpolation": 2}]}, "scale": 1, "scale_x": {"Points": [{"co": {"X": 1.0, "Y": 1.0}, "interpolation": 2}]}, "scale_y": {"Points": [{"co": {"X": 1.0, "Y": 1.0}, "interpolation": 2}]}, "shear_x": {"Points": [{"co": {"X": 1.0, "Y": 0.0}, "interpolation": 2}]}, "shear_y": {"Points": [{"co": {"X": 1.0, "Y": 0.0}, "interpolation": 2}]}, "start": 3.6399999999999997, "time": {"Points": [{"co": {"X": 1.0, "Y": 1.0}, "interpolation": 2}]}, "volume": {"Points": [{"co": {"X": 1.0, "Y": 1.0}, "interpolation": 2}]}, "wave_color": {"alpha": {"Points": [{"co": {"X": 1.0, "Y": 255.0}, "handle_left": {"X": 0.5, "Y": 1.0}, "handle_right": {"X": 0.5, "Y": 0.0}, "handle_type": 0, "interpolation": 0}]}, "blue": {"Points": [{"co": {"X": 1.0, "Y": 255.0}, "handle_left": {"X": 0.5, "Y": 1.0}, "handle_right": {"X": 0.5, "Y": 0.0}, "handle_type": 0, "interpolation": 0}]}, "green": {"Points": [{"co": {"X": 1.0, "Y": 123.0}, "handle_left": {"X": 0.5, "Y": 1.0}, "handle_right": {"X": 0.5, "Y": 0.0}, "handle_type": 0, "interpolation": 0}]}, "red": {"Points": [{"co": {"X": 1.0, "Y": 0.0}, "handle_left": {"X": 0.5, "Y": 1.0}, "handle_right": {"X": 0.5, "Y": 0.0}, "handle_type": 0, "interpolation": 0}]}}, "waveform": false, "file_id": "XS6KKBW86O", "title": "results.flv", "image": "C:\\Users\\jdelrocc\\.openshot_qt\\thumbnail\\SC4OJLFPDB-228.png"}, "partial": false, "old_values": {"alpha": {"Points": [{"co": {"X": 1.0, "Y": 1.0}, "handle_left": {"X": 0.5, "Y": 1.0}, "handle_right": {"X": 0.5, "Y": 0.0}, "handle_type": 0, "interpolation": 0}, {"co": {"X": 1406.0, "Y": 1.0}, "handle_left": {"X": 0.5, "Y": 1.0}, "handle_right": {"X": 0.5, "Y": 0.0}, "handle_type": 0, "interpolation": 0}, {"co": {"X": 1430.0, "Y": 0.0}, "handle_left": {"X": 0.5, "Y": 1.0}, "handle_right": {"X": 0.5, "Y": 0.0}, "handle_type": 0, "interpolation": 0}]}, "anchor": 0, "channel_filter": {"Points": [{"co": {"X": 1.0, "Y": -1.0}, "interpolation": 2}]}, "channel_mapping": {"Points": [{"co": {"X": 1.0, "Y": -1.0}, "interpolation": 2}]}, "crop_height": {"Points": [{"co": {"X": 1.0, "Y": -1.0}, "interpolation": 2}]}, "crop_width": {"Points": [{"co": {"X": 1.0, "Y": -1.0}, "interpolation": 2}]}, "crop_x": {"Points": [{"co": {"X": 1.0, "Y": 0.0}, "interpolation": 2}]}, "crop_y": {"Points": [{"co": {"X": 1.0, "Y": 0.0}, "interpolation": 2}]}, "display": 0, "duration": 61.0, "effects": [], "end": 59.53, "gravity": 4, "has_audio": {"Points": [{"co": {"X": 1.0, "Y": -1.0}, "interpolation": 2}]}, "has_video": {"Points": [{"co": {"X": 1.0, "Y": -1.0}, "interpolation": 2}]}, "id": "SC4OJLFPDB", "layer": 3, "location_x": {"Points": [{"co": {"X": 1.0, "Y": 0.0}, "interpolation": 2}]}, "location_y": {"Points": [{"co": {"X": 1.0, "Y": 0.0}, "interpolation": 2}]}, "mixing": 0, "perspective_c1_x": {"Points": [{"co": {"X": 1.0, "Y": -1.0}, "interpolation": 2}]}, "perspective_c1_y": {"Points": [{"co": {"X": 1.0, "Y": -1.0}, "interpolation": 2}]}, "perspective_c2_x": {"Points": [{"co": {"X": 1.0, "Y": -1.0}, "interpolation": 2}]}, "perspective_c2_y": {"Points": [{"co": {"X": 1.0, "Y": -1.0}, "interpolation": 2}]}, "perspective_c3_x": {"Points": [{"co": {"X": 1.0, "Y": -1.0}, "interpolation": 2}]}, "perspective_c3_y": {"Points": [{"co": {"X": 1.0, "Y": -1.0}, "interpolation": 2}]}, "perspective_c4_x": {"Points": [{"co": {"X": 1.0, "Y": -1.0}, "interpolation": 2}]}, "perspective_c4_y": {"Points": [{"co": {"X": 1.0, "Y": -1.0}, "interpolation": 2}]}, "position": 41.709062499999995, "reader": {"acodec": "aac", "audio_bit_rate": 128000, "audio_stream_index": 1, "audio_timebase": {"den": 1000, "num": 1}, "channel_layout": 3, "channels": 2, "display_ratio": {"den": 9, "num": 16}, "duration": 61.0, "file_size": "3324260", "fps": {"den": 2, "num": 125}, "has_audio": true, "has_single_image": false, "has_video": true, "height": 1080, "interlaced_frame": false, "metadata": {"encoder": "Lavf57.84.100"}, "path": "C:\\Users\\jdelrocc\\Desktop\\results.flv", "pixel_format": 0, "pixel_ratio": {"den": 1, "num": 1}, "sample_rate": 44100, "top_field_first": true, "type": "FFmpegReader", "vcodec": "h264", "video_bit_rate": 433008, "video_length": "3813", "video_stream_index": 0, "video_timebase": {"den": 1000, "num": 1}, "width": 1920}, "rotation": {"Points": [{"co": {"X": 1.0, "Y": 0.0}, "interpolation": 2}]}, "scale": 1, "scale_x": {"Points": [{"co": {"X": 1.0, "Y": 1.0}, "interpolation": 2}]}, "scale_y": {"Points": [{"co": {"X": 1.0, "Y": 1.0}, "interpolation": 2}]}, "shear_x": {"Points": [{"co": {"X": 1.0, "Y": 0.0}, "interpolation": 2}]}, "shear_y": {"Points": [{"co": {"X": 1.0, "Y": 0.0}, "interpolation": 2}]}, "start": 3.6399999999999997, "time": {"Points": [{"co": {"X": 1.0, "Y": 1.0}, "interpolation": 2}]}, "volume": {"Points": [{"co": {"X": 1.0, "Y": 1.0}, "interpolation": 2}]}, "wave_color": {"alpha": {"Points": [{"co": {"X": 1.0, "Y": 255.0}, "handle_left": {"X": 0.5, "Y": 1.0}, "handle_right": {"X": 0.5, "Y": 0.0}, "handle_type": 0, "interpolation": 0}]}, "blue": {"Points": [{"co": {"X": 1.0, "Y": 255.0}, "handle_left": {"X": 0.5, "Y": 1.0}, "handle_right": {"X": 0.5, "Y": 0.0}, "handle_type": 0, "interpolation": 0}]}, "green": {"Points": [{"co": {"X": 1.0, "Y": 123.0}, "handle_left": {"X": 0.5, "Y": 1.0}, "handle_right": {"X": 0.5, "Y": 0.0}, "handle_type": 0, "interpolation": 0}]}, "red": {"Points": [{"co": {"X": 1.0, "Y": 0.0}, "handle_left": {"X": 0.5, "Y": 1.0}, "handle_right": {"X": 0.5, "Y": 0.0}, "handle_type": 0, "interpolation": 0}]}}, "waveform": false, "file_id": "XS6KKBW86O", "title": "results.flv", "image": "C:\\Users\\jdelrocc\\.openshot_qt\\thumbnail\\SC4OJLFPDB-228.png"}}, {"type": "update", "key": ["scale"], "value": 7, "partial": false, "old_values": 1}, {"type": "update", "key": ["scale"], "value": 14, "partial": false, "old_values": 7}, {"type": "update", "key": ["scale"], "value": 24, "partial": false, "old_values": 14}], "redo": []}, "fps": {"den": 1, "num": 24}, "scale": 24, "layers": [{"y": 0, "lock": false, "id": "L0", "number": 0, "label": ""}, {"number": 1, "y": 0, "label": "", "lock": false, "id": "BNJ8N4SRGD"}, {"number": 2, "y": 0, "label": "", "lock": false, "id": "ON531FLA6M"}, {"number": 3, "y": 0, "label": "", "lock": false, "id": "P2R3AN871R"}], "markers": [], "playhead_position": 0, "clips": [{"rotation": {"Points": [{"interpolation": 2, "co": {"Y": 0.0, "X": 1.0}}]}, "crop_x": {"Points": [{"interpolation": 2, "co": {"Y": 0.0, "X": 1.0}}]}, "location_y": {"Points": [{"interpolation": 2, "co": {"Y": 0.0, "X": 1.0}}]}, "has_audio": {"Points": [{"interpolation": 2, "co": {"Y": -1.0, "X": 1.0}}]}, "start": 0, "shear_y": {"Points": [{"interpolation": 2, "co": {"Y": 0.0, "X": 1.0}}]}, "perspective_c1_y": {"Points": [{"interpolation": 2, "co": {"Y": -1.0, "X": 1.0}}]}, "perspective_c2_y": {"Points": [{"interpolation": 2, "co": {"Y": -1.0, "X": 1.0}}]}, "perspective_c4_x": {"Points": [{"interpolation": 2, "co": {"Y": -1.0, "X": 1.0}}]}, "layer": 0, "end": 5, "perspective_c3_x": {"Points": [{"interpolation": 2, "co": {"Y": -1.0, "X": 1.0}}]}, "crop_width": {"Points": [{"interpolation": 2, "co": {"Y": -1.0, "X": 1.0}}]}, "scale_x": {"Points": [{"interpolation": 2, "co": {"Y": 1.0, "X": 1.0}}]}, "title": "title.flv", "shear_x": {"Points": [{"interpolation": 2, "co": {"Y": 0.0, "X": 1.0}}]}, "id": "6WDOLLJ5EL", "duration": 5.0, "crop_height": {"Points": [{"interpolation": 2, "co": {"Y": -1.0, "X": 1.0}}]}, "perspective_c1_x": {"Points": [{"interpolation": 2, "co": {"Y": -1.0, "X": 1.0}}]}, "effects": [], "time": {"Points": [{"interpolation": 2, "co": {"Y": 1.0, "X": 1.0}}]}, "location_x": {"Points": [{"interpolation": 2, "co": {"Y": 0.0, "X": 1.0}}]}, "crop_y": {"Points": [{"interpolation": 2, "co": {"Y": 0.0, "X": 1.0}}]}, "waveform": false, "image": "..\\..\\..\\..\\.openshot_qt\\thumbnail\\TCQFE8K6PN.png", "perspective_c2_x": {"Points": [{"interpolation": 2, "co": {"Y": -1.0, "X": 1.0}}]}, "alpha": {"Points": [{"co": {"X": 1.0, "Y": 1.0}, "handle_left": {"X": 0.5, "Y": 1.0}, "handle_right": {"X": 0.5, "Y": 0.0}, "handle_type": 0, "interpolation": 0}]}, "wave_color": {"red": {"Points": [{"handle_type": 0, "handle_left": {"Y": 1.0, "X": 0.5}, "handle_right": {"Y": 0.0, "X": 0.5}, "interpolation": 0, "co": {"Y": 0.0, "X": 1.0}}]}, "blue": {"Points": [{"handle_type": 0, "handle_left": {"Y": 1.0, "X": 0.5}, "handle_right": {"Y": 0.0, "X": 0.5}, "interpolation": 0, "co": {"Y": 255.0, "X": 1.0}}]}, "alpha": {"Points": [{"handle_type": 0, "handle_left": {"Y": 1.0, "X": 0.5}, "handle_right": {"Y": 0.0, "X": 0.5}, "interpolation": 0, "co": {"Y": 255.0, "X": 1.0}}]}, "green": {"Points": [{"handle_type": 0, "handle_left": {"Y": 1.0, "X": 0.5}, "handle_right": {"Y": 0.0, "X": 0.5}, "interpolation": 0, "co": {"Y": 123.0, "X": 1.0}}]}}, "file_id": "TCQFE8K6PN", "perspective_c4_y": {"Points": [{"interpolation": 2, "co": {"Y": -1.0, "X": 1.0}}]}, "perspective_c3_y": {"Points": [{"interpolation": 2, "co": {"Y": -1.0, "X": 1.0}}]}, "volume": {"Points": [{"interpolation": 2, "co": {"Y": 1.0, "X": 1.0}}]}, "anchor": 0, "position": 0, "reader": {"top_field_first": true, "video_bit_rate": 367463, "has_video": true, "has_audio": true, "vcodec": "h264", "acodec": "aac", "fps": {"den": 2, "num": 125}, "audio_stream_index": 1, "pixel_format": 0, "audio_timebase": {"den": 1000, "num": 1}, "type": "FFmpegReader", "file_size": "248084", "sample_rate": 44100, "channel_layout": 3, "display_ratio": {"den": 9, "num": 16}, "duration": 5.0, "channels": 2, "video_length": "313", "interlaced_frame": false, "path": "vidsrc\\title.flv", "video_stream_index": 0, "has_single_image": false, "video_timebase": {"den": 1000, "num": 1}, "audio_bit_rate": 0, "pixel_ratio": {"den": 1, "num": 1}, "height": 1080, "width": 1920}, "gravity": 4, "scale": 1, "channel_mapping": {"Points": [{"interpolation": 2, "co": {"Y": -1.0, "X": 1.0}}]}, "scale_y": {"Points": [{"interpolation": 2, "co": {"Y": 1.0, "X": 1.0}}]}, "display": 0, "channel_filter": {"Points": [{"interpolation": 2, "co": {"Y": -1.0, "X": 1.0}}]}, "has_video": {"Points": [{"interpolation": 2, "co": {"Y": -1.0, "X": 1.0}}]}}, {"rotation": {"Points": [{"interpolation": 2, "co": {"Y": 0.0, "X": 1.0}}]}, "crop_x": {"Points": [{"interpolation": 2, "co": {"Y": 0.0, "X": 1.0}}]}, "location_y": {"Points": [{"interpolation": 2, "co": {"Y": 0.0, "X": 1.0}}]}, "has_audio": {"Points": [{"interpolation": 2, "co": {"Y": -1.0, "X": 1.0}}]}, "start": 4.53, "shear_y": {"Points": [{"interpolation": 2, "co": {"Y": 0.0, "X": 1.0}}]}, "perspective_c1_y": {"Points": [{"interpolation": 2, "co": {"Y": -1.0, "X": 1.0}}]}, "perspective_c2_y": {"Points": [{"interpolation": 2, "co": {"Y": -1.0, "X": 1.0}}]}, "perspective_c4_x": {"Points": [{"interpolation": 2, "co": {"Y": -1.0, "X": 1.0}}]}, "layer": 2, "perspective_c3_x": {"Points": [{"interpolation": 2, "co": {"Y": -1.0, "X": 1.0}}]}, "crop_width": {"Points": [{"interpolation": 2, "co": {"Y": -1.0, "X": 1.0}}]}, "scale_x": {"Points": [{"interpolation": 2, "co": {"Y": 1.0, "X": 1.0}}]}, "title": "mlrun.flv", "shear_x": {"Points": [{"interpolation": 2, "co": {"Y": 0.0, "X": 1.0}}]}, "id": "3ZZHC9HOSP", "duration": 102.0, "crop_height": {"Points": [{"interpolation": 2, "co": {"Y": -1.0, "X": 1.0}}]}, "perspective_c1_x": {"Points": [{"interpolation": 2, "co": {"Y": -1.0, "X": 1.0}}]}, "effects": [], "time": {"Points": [{"interpolation": 2, "co": {"Y": 1.0, "X": 1.0}}]}, "location_x": {"Points": [{"interpolation": 2, "co": {"Y": 0.0, "X": 1.0}}]}, "crop_y": {"Points": [{"interpolation": 2, "co": {"Y": 0.0, "X": 1.0}}]}, "waveform": false, "anchor": 0, "image": "..\\..\\..\\..\\.openshot_qt\\thumbnail\\3ZZHC9HOSP-284.png", "perspective_c2_x": {"Points": [{"interpolation": 2, "co": {"Y": -1.0, "X": 1.0}}]}, "alpha": {"Points": [{"interpolation": 2, "co": {"Y": 1.0, "X": 1.0}}]}, "wave_color": {"red": {"Points": [{"handle_type": 0, "handle_left": {"Y": 1.0, "X": 0.5}, "handle_right": {"Y": 0.0, "X": 0.5}, "interpolation": 0, "co": {"Y": 0.0, "X": 1.0}}]}, "blue": {"Points": [{"handle_type": 0, "handle_left": {"Y": 1.0, "X": 0.5}, "handle_right": {"Y": 0.0, "X": 0.5}, "interpolation": 0, "co": {"Y": 255.0, "X": 1.0}}]}, "green": {"Points": [{"handle_type": 0, "handle_left": {"Y": 1.0, "X": 0.5}, "handle_right": {"Y": 0.0, "X": 0.5}, "interpolation": 0, "co": {"Y": 123.0, "X": 1.0}}]}, "alpha": {"Points": [{"handle_type": 0, "handle_left": {"Y": 1.0, "X": 0.5}, "handle_right": {"Y": 0.0, "X": 0.5}, "interpolation": 0, "co": {"Y": 255.0, "X": 1.0}}]}}, "file_id": "O0ARLRJY9L", "perspective_c4_y": {"Points": [{"interpolation": 2, "co": {"Y": -1.0, "X": 1.0}}]}, "perspective_c3_y": {"Points": [{"interpolation": 2, "co": {"Y": -1.0, "X": 1.0}}]}, "volume": {"Points": [{"interpolation": 2, "co": {"Y": 1.0, "X": 1.0}}]}, "end": 7.259999999999998, "position": 19.4096875, "reader": {"top_field_first": true, "video_bit_rate": 292578, "has_video": true, "has_audio": true, "vcodec": "h264", "acodec": "aac", "fps": {"den": 2, "num": 125}, "audio_stream_index": 1, "pixel_format": 0, "audio_timebase": {"den": 1000, "num": 1}, "type": "FFmpegReader", "file_size": "3764540", "sample_rate": 44100, "channel_layout": 3, "display_ratio": {"den": 9, "num": 16}, "duration": 102.0, "channels": 2, "video_length": "6375", "interlaced_frame": false, "path": "vidsrc\\mlrun.flv", "video_stream_index": 0, "has_single_image": false, "video_timebase": {"den": 1000, "num": 1}, "audio_bit_rate": 0, "pixel_ratio": {"den": 1, "num": 1}, "height": 1080, "width": 1920}, "gravity": 4, "scale": 1, "channel_mapping": {"Points": [{"interpolation": 2, "co": {"Y": -1.0, "X": 1.0}}]}, "scale_y": {"Points": [{"interpolation": 2, "co": {"Y": 1.0, "X": 1.0}}]}, "display": 0, "channel_filter": {"Points": [{"interpolation": 2, "co": {"Y": -1.0, "X": 1.0}}]}, "has_video": {"Points": [{"interpolation": 2, "co": {"Y": -1.0, "X": 1.0}}]}}, {"crop_x": {"Points": [{"interpolation": 2, "co": {"Y": 0.0, "X": 1.0}}]}, "location_y": {"Points": [{"interpolation": 2, "co": {"Y": 0.0, "X": 1.0}}]}, "shear_y": {"Points": [{"interpolation": 2, "co": {"Y": 0.0, "X": 1.0}}]}, "layer": 2, "crop_width": {"Points": [{"interpolation": 2, "co": {"Y": -1.0, "X": 1.0}}]}, "scale_x": {"Points": [{"interpolation": 2, "co": {"Y": 1.0, "X": 1.0}}]}, "title": "mlrun.flv", "shear_x": {"Points": [{"interpolation": 2, "co": {"Y": 0.0, "X": 1.0}}]}, "id": "KDNVN4ROY2", "duration": 102.0, "location_x": {"Points": [{"interpolation": 2, "co": {"Y": 0.0, "X": 1.0}}]}, "crop_y": {"Points": [{"interpolation": 2, "co": {"Y": 0.0, "X": 1.0}}]}, "waveform": false, "anchor": 0, "image": "..\\..\\..\\..\\.openshot_qt\\thumbnail\\KDNVN4ROY2-663.png", "perspective_c2_x": {"Points": [{"interpolation": 2, "co": {"Y": -1.0, "X": 1.0}}]}, "alpha": {"Points": [{"interpolation": 2, "co": {"Y": 1.0, "X": 1.0}}]}, "wave_color": {"red": {"Points": [{"handle_type": 0, "handle_left": {"Y": 1.0, "X": 0.5}, "handle_right": {"Y": 0.0, "X": 0.5}, "interpolation": 0, "co": {"Y": 0.0, "X": 1.0}}]}, "blue": {"Points": [{"handle_type": 0, "handle_left": {"Y": 1.0, "X": 0.5}, "handle_right": {"Y": 0.0, "X": 0.5}, "interpolation": 0, "co": {"Y": 255.0, "X": 1.0}}]}, "alpha": {"Points": [{"handle_type": 0, "handle_left": {"Y": 1.0, "X": 0.5}, "handle_right": {"Y": 0.0, "X": 0.5}, "interpolation": 0, "co": {"Y": 255.0, "X": 1.0}}]}, "green": {"Points": [{"handle_type": 0, "handle_left": {"Y": 1.0, "X": 0.5}, "handle_right": {"Y": 0.0, "X": 0.5}, "interpolation": 0, "co": {"Y": 123.0, "X": 1.0}}]}}, "volume": {"Points": [{"interpolation": 2, "co": {"Y": 1.0, "X": 1.0}}]}, "position": 22.1396875, "reader": {"top_field_first": true, "video_bit_rate": 292578, "has_video": true, "has_audio": true, "vcodec": "h264", "acodec": "aac", "fps": {"den": 2, "num": 125}, "audio_stream_index": 1, "pixel_format": 0, "audio_timebase": {"den": 1000, "num": 1}, "type": "FFmpegReader", "file_size": "3764540", "sample_rate": 44100, "channel_layout": 3, "display_ratio": {"den": 9, "num": 16}, "duration": 102.0, "channels": 2, "video_length": "6375", "interlaced_frame": false, "path": "vidsrc\\mlrun.flv", "video_stream_index": 0, "has_single_image": false, "video_timebase": {"den": 1000, "num": 1}, "audio_bit_rate": 0, "pixel_ratio": {"den": 1, "num": 1}, "height": 1080, "width": 1920}, "scale": 1, "channel_mapping": {"Points": [{"interpolation": 2, "co": {"Y": -1.0, "X": 1.0}}]}, "scale_y": {"Points": [{"interpolation": 2, "co": {"Y": 1.0, "X": 1.0}}]}, "perspective_c3_y": {"Points": [{"interpolation": 2, "co": {"Y": -1.0, "X": 1.0}}]}, "channel_filter": {"Points": [{"interpolation": 2, "co": {"Y": -1.0, "X": 1.0}}]}, "rotation": {"Points": [{"interpolation": 2, "co": {"Y": 0.0, "X": 1.0}}]}, "has_audio": {"Points": [{"interpolation": 2, "co": {"Y": -1.0, "X": 1.0}}]}, "start": 10.599999999999996, "perspective_c1_y": {"Points": [{"interpolation": 2, "co": {"Y": -1.0, "X": 1.0}}]}, "perspective_c2_y": {"Points": [{"interpolation": 2, "co": {"Y": -1.0, "X": 1.0}}]}, "perspective_c4_x": {"Points": [{"interpolation": 2, "co": {"Y": -1.0, "X": 1.0}}]}, "perspective_c3_x": {"Points": [{"interpolation": 2, "co": {"Y": -1.0, "X": 1.0}}]}, "crop_height": {"Points": [{"interpolation": 2, "co": {"Y": -1.0, "X": 1.0}}]}, "perspective_c1_x": {"Points": [{"interpolation": 2, "co": {"Y": -1.0, "X": 1.0}}]}, "effects": [], "time": {"Points": [{"interpolation": 2, "co": {"Y": 1.0, "X": 1.0}}]}, "file_id": "O0ARLRJY9L", "perspective_c4_y": {"Points": [{"interpolation": 2, "co": {"Y": -1.0, "X": 1.0}}]}, "end": 12.94364583333333, "gravity": 4, "display": 0, "has_video": {"Points": [{"interpolation": 2, "co": {"Y": -1.0, "X": 1.0}}]}}, {"alpha": {"Points": [{"co": {"X": 1.0, "Y": 1.0}, "interpolation": 2}]}, "anchor": 0, "channel_filter": {"Points": [{"co": {"X": 1.0, "Y": -1.0}, "interpolation": 2}]}, "channel_mapping": {"Points": [{"co": {"X": 1.0, "Y": -1.0}, "interpolation": 2}]}, "crop_height": {"Points": [{"co": {"X": 1.0, "Y": -1.0}, "interpolation": 2}]}, "crop_width": {"Points": [{"co": {"X": 1.0, "Y": -1.0}, "interpolation": 2}]}, "crop_x": {"Points": [{"co": {"X": 1.0, "Y": 0.0}, "interpolation": 2}]}, "crop_y": {"Points": [{"co": {"X": 1.0, "Y": 0.0}, "interpolation": 2}]}, "display": 0, "duration": 64.0, "effects": [], "end": 41.42, "gravity": 4, "has_audio": {"Points": [{"co": {"X": 1.0, "Y": -1.0}, "interpolation": 2}]}, "has_video": {"Points": [{"co": {"X": 1.0, "Y": -1.0}, "interpolation": 2}]}, "id": "NCOM9OXGNT", "layer": 1, "location_x": {"Points": [{"co": {"X": 1.0, "Y": 0.0}, "interpolation": 2}]}, "location_y": {"Points": [{"co": {"X": 1.0, "Y": 0.0}, "interpolation": 2}]}, "mixing": 0, "perspective_c1_x": {"Points": [{"co": {"X": 1.0, "Y": -1.0}, "interpolation": 2}]}, "perspective_c1_y": {"Points": [{"co": {"X": 1.0, "Y": -1.0}, "interpolation": 2}]}, "perspective_c2_x": {"Points": [{"co": {"X": 1.0, "Y": -1.0}, "interpolation": 2}]}, "perspective_c2_y": {"Points": [{"co": {"X": 1.0, "Y": -1.0}, "interpolation": 2}]}, "perspective_c3_x": {"Points": [{"co": {"X": 1.0, "Y": -1.0}, "interpolation": 2}]}, "perspective_c3_y": {"Points": [{"co": {"X": 1.0, "Y": -1.0}, "interpolation": 2}]}, "perspective_c4_x": {"Points": [{"co": {"X": 1.0, "Y": -1.0}, "interpolation": 2}]}, "perspective_c4_y": {"Points": [{"co": {"X": 1.0, "Y": -1.0}, "interpolation": 2}]}, "position": 4.53, "reader": {"acodec": "aac", "audio_bit_rate": 128000, "audio_stream_index": 1, "audio_timebase": {"den": 1000, "num": 1}, "channel_layout": 3, "channels": 2, "display_ratio": {"den": 9, "num": 16}, "duration": 64.0, "file_size": "3829868", "fps": {"den": 2, "num": 125}, "has_audio": true, "has_single_image": false, "has_video": true, "height": 1080, "interlaced_frame": false, "metadata": {"encoder": "Lavf57.84.100"}, "path": "vidsrc\\sdv.flv", "pixel_format": 0, "pixel_ratio": {"den": 1, "num": 1}, "sample_rate": 44100, "top_field_first": true, "type": "FFmpegReader", "vcodec": "h264", "video_bit_rate": 473305, "video_length": "4000", "video_stream_index": 0, "video_timebase": {"den": 1000, "num": 1}, "width": 1920}, "rotation": {"Points": [{"co": {"X": 1.0, "Y": 0.0}, "interpolation": 2}]}, "scale": 1, "scale_x": {"Points": [{"co": {"X": 1.0, "Y": 1.0}, "interpolation": 2}]}, "scale_y": {"Points": [{"co": {"X": 1.0, "Y": 1.0}, "interpolation": 2}]}, "shear_x": {"Points": [{"co": {"X": 1.0, "Y": 0.0}, "interpolation": 2}]}, "shear_y": {"Points": [{"co": {"X": 1.0, "Y": 0.0}, "interpolation": 2}]}, "start": 24.919999999999998, "time": {"Points": [{"co": {"X": 1.0, "Y": 1.0}, "interpolation": 2}]}, "volume": {"Points": [{"co": {"X": 1.0, "Y": 1.0}, "interpolation": 2}]}, "wave_color": {"alpha": {"Points": [{"co": {"X": 1.0, "Y": 255.0}, "handle_left": {"X": 0.5, "Y": 1.0}, "handle_right": {"X": 0.5, "Y": 0.0}, "handle_type": 0, "interpolation": 0}]}, "blue": {"Points": [{"co": {"X": 1.0, "Y": 255.0}, "handle_left": {"X": 0.5, "Y": 1.0}, "handle_right": {"X": 0.5, "Y": 0.0}, "handle_type": 0, "interpolation": 0}]}, "green": {"Points": [{"co": {"X": 1.0, "Y": 123.0}, "handle_left": {"X": 0.5, "Y": 1.0}, "handle_right": {"X": 0.5, "Y": 0.0}, "handle_type": 0, "interpolation": 0}]}, "red": {"Points": [{"co": {"X": 1.0, "Y": 0.0}, "handle_left": {"X": 0.5, "Y": 1.0}, "handle_right": {"X": 0.5, "Y": 0.0}, "handle_type": 0, "interpolation": 0}]}}, "waveform": false, "file_id": "CQOQL1F6A8", "title": "sdv.flv", "image": "..\\..\\..\\..\\.openshot_qt\\thumbnail\\NCOM9OXGNT-1558.png"}, {"crop_x": {"Points": [{"interpolation": 2, "co": {"Y": 0.0, "X": 1.0}}]}, "location_y": {"Points": [{"interpolation": 2, "co": {"Y": 0.0, "X": 1.0}}]}, "shear_y": {"Points": [{"interpolation": 2, "co": {"Y": 0.0, "X": 1.0}}]}, "layer": 2, "crop_width": {"Points": [{"interpolation": 2, "co": {"Y": -1.0, "X": 1.0}}]}, "scale_x": {"Points": [{"interpolation": 2, "co": {"Y": 1.0, "X": 1.0}}]}, "title": "mlrun.flv", "shear_x": {"Points": [{"interpolation": 2, "co": {"Y": 0.0, "X": 1.0}}]}, "duration": 102.0, "location_x": {"Points": [{"interpolation": 2, "co": {"Y": 0.0, "X": 1.0}}]}, "crop_y": {"Points": [{"interpolation": 2, "co": {"Y": 0.0, "X": 1.0}}]}, "waveform": false, "anchor": 0, "image": "..\\..\\..\\..\\.openshot_qt\\thumbnail\\FCF1JIT2E9-1619.png", "perspective_c2_x": {"Points": [{"interpolation": 2, "co": {"Y": -1.0, "X": 1.0}}]}, "alpha": {"Points": [{"interpolation": 2, "co": {"Y": 1.0, "X": 1.0}}]}, "wave_color": {"red": {"Points": [{"handle_type": 0, "handle_left": {"Y": 1.0, "X": 0.5}, "handle_right": {"Y": 0.0, "X": 0.5}, "interpolation": 0, "co": {"Y": 0.0, "X": 1.0}}]}, "blue": {"Points": [{"handle_type": 0, "handle_left": {"Y": 1.0, "X": 0.5}, "handle_right": {"Y": 0.0, "X": 0.5}, "interpolation": 0, "co": {"Y": 255.0, "X": 1.0}}]}, "alpha": {"Points": [{"handle_type": 0, "handle_left": {"Y": 1.0, "X": 0.5}, "handle_right": {"Y": 0.0, "X": 0.5}, "interpolation": 0, "co": {"Y": 255.0, "X": 1.0}}]}, "green": {"Points": [{"handle_type": 0, "handle_left": {"Y": 1.0, "X": 0.5}, "handle_right": {"Y": 0.0, "X": 0.5}, "interpolation": 0, "co": {"Y": 123.0, "X": 1.0}}]}}, "volume": {"Points": [{"interpolation": 2, "co": {"Y": 1.0, "X": 1.0}}]}, "position": 24.48328125, "reader": {"top_field_first": true, "video_bit_rate": 292578, "has_video": true, "has_audio": true, "vcodec": "h264", "acodec": "aac", "fps": {"den": 2, "num": 125}, "audio_stream_index": 1, "pixel_format": 0, "audio_timebase": {"den": 1000, "num": 1}, "type": "FFmpegReader", "file_size": "3764540", "sample_rate": 44100, "channel_layout": 3, "display_ratio": {"den": 9, "num": 16}, "duration": 102.0, "channels": 2, "video_length": "6375", "interlaced_frame": false, "path": "vidsrc\\mlrun.flv", "video_stream_index": 0, "has_single_image": false, "video_timebase": {"den": 1000, "num": 1}, "audio_bit_rate": 0, "pixel_ratio": {"den": 1, "num": 1}, "height": 1080, "width": 1920}, "scale": 1, "channel_mapping": {"Points": [{"interpolation": 2, "co": {"Y": -1.0, "X": 1.0}}]}, "scale_y": {"Points": [{"interpolation": 2, "co": {"Y": 1.0, "X": 1.0}}]}, "perspective_c3_y": {"Points": [{"interpolation": 2, "co": {"Y": -1.0, "X": 1.0}}]}, "channel_filter": {"Points": [{"interpolation": 2, "co": {"Y": -1.0, "X": 1.0}}]}, "rotation": {"Points": [{"interpolation": 2, "co": {"Y": 0.0, "X": 1.0}}]}, "has_audio": {"Points": [{"interpolation": 2, "co": {"Y": -1.0, "X": 1.0}}]}, "start": 25.89364583333333, "perspective_c1_y": {"Points": [{"interpolation": 2, "co": {"Y": -1.0, "X": 1.0}}]}, "perspective_c2_y": {"Points": [{"interpolation": 2, "co": {"Y": -1.0, "X": 1.0}}]}, "perspective_c4_x": {"Points": [{"interpolation": 2, "co": {"Y": -1.0, "X": 1.0}}]}, "perspective_c3_x": {"Points": [{"interpolation": 2, "co": {"Y": -1.0, "X": 1.0}}]}, "crop_height": {"Points": [{"interpolation": 2, "co": {"Y": -1.0, "X": 1.0}}]}, "perspective_c1_x": {"Points": [{"interpolation": 2, "co": {"Y": -1.0, "X": 1.0}}]}, "effects": [], "time": {"Points": [{"interpolation": 2, "co": {"Y": 1.0, "X": 1.0}}]}, "file_id": "O0ARLRJY9L", "perspective_c4_y": {"Points": [{"interpolation": 2, "co": {"Y": -1.0, "X": 1.0}}]}, "end": 28.43536458333333, "gravity": 4, "display": 0, "has_video": {"Points": [{"interpolation": 2, "co": {"Y": -1.0, "X": 1.0}}]}, "id": "FCF1JIT2E9"}, {"crop_x": {"Points": [{"interpolation": 2, "co": {"Y": 0.0, "X": 1.0}}]}, "location_y": {"Points": [{"interpolation": 2, "co": {"Y": 0.0, "X": 1.0}}]}, "shear_y": {"Points": [{"interpolation": 2, "co": {"Y": 0.0, "X": 1.0}}]}, "layer": 2, "crop_width": {"Points": [{"interpolation": 2, "co": {"Y": -1.0, "X": 1.0}}]}, "scale_x": {"Points": [{"interpolation": 2, "co": {"Y": 1.0, "X": 1.0}}]}, "title": "mlrun.flv", "shear_x": {"Points": [{"interpolation": 2, "co": {"Y": 0.0, "X": 1.0}}]}, "duration": 102.0, "location_x": {"Points": [{"interpolation": 2, "co": {"Y": 0.0, "X": 1.0}}]}, "crop_y": {"Points": [{"interpolation": 2, "co": {"Y": 0.0, "X": 1.0}}]}, "waveform": false, "anchor": 0, "image": "..\\..\\..\\..\\.openshot_qt\\thumbnail\\VM28VNF8RE-3482.png", "perspective_c2_x": {"Points": [{"interpolation": 2, "co": {"Y": -1.0, "X": 1.0}}]}, "alpha": {"Points": [{"interpolation": 2, "co": {"Y": 1.0, "X": 1.0}}]}, "wave_color": {"red": {"Points": [{"handle_type": 0, "handle_left": {"Y": 1.0, "X": 0.5}, "handle_right": {"Y": 0.0, "X": 0.5}, "interpolation": 0, "co": {"Y": 0.0, "X": 1.0}}]}, "blue": {"Points": [{"handle_type": 0, "handle_left": {"Y": 1.0, "X": 0.5}, "handle_right": {"Y": 0.0, "X": 0.5}, "interpolation": 0, "co": {"Y": 255.0, "X": 1.0}}]}, "alpha": {"Points": [{"handle_type": 0, "handle_left": {"Y": 1.0, "X": 0.5}, "handle_right": {"Y": 0.0, "X": 0.5}, "interpolation": 0, "co": {"Y": 255.0, "X": 1.0}}]}, "green": {"Points": [{"handle_type": 0, "handle_left": {"Y": 1.0, "X": 0.5}, "handle_right": {"Y": 0.0, "X": 0.5}, "interpolation": 0, "co": {"Y": 123.0, "X": 1.0}}]}}, "volume": {"Points": [{"interpolation": 2, "co": {"Y": 1.0, "X": 1.0}}]}, "position": 27.025000000000002, "reader": {"top_field_first": true, "video_bit_rate": 292578, "has_video": true, "has_audio": true, "vcodec": "h264", "acodec": "aac", "fps": {"den": 2, "num": 125}, "audio_stream_index": 1, "pixel_format": 0, "audio_timebase": {"den": 1000, "num": 1}, "type": "FFmpegReader", "file_size": "3764540", "sample_rate": 44100, "channel_layout": 3, "display_ratio": {"den": 9, "num": 16}, "duration": 102.0, "channels": 2, "video_length": "6375", "interlaced_frame": false, "path": "vidsrc\\mlrun.flv", "video_stream_index": 0, "has_single_image": false, "video_timebase": {"den": 1000, "num": 1}, "audio_bit_rate": 0, "pixel_ratio": {"den": 1, "num": 1}, "height": 1080, "width": 1920}, "scale": 1, "channel_mapping": {"Points": [{"interpolation": 2, "co": {"Y": -1.0, "X": 1.0}}]}, "scale_y": {"Points": [{"interpolation": 2, "co": {"Y": 1.0, "X": 1.0}}]}, "perspective_c3_y": {"Points": [{"interpolation": 2, "co": {"Y": -1.0, "X": 1.0}}]}, "channel_filter": {"Points": [{"interpolation": 2, "co": {"Y": -1.0, "X": 1.0}}]}, "rotation": {"Points": [{"interpolation": 2, "co": {"Y": 0.0, "X": 1.0}}]}, "has_audio": {"Points": [{"interpolation": 2, "co": {"Y": -1.0, "X": 1.0}}]}, "start": 55.69536458333334, "perspective_c1_y": {"Points": [{"interpolation": 2, "co": {"Y": -1.0, "X": 1.0}}]}, "perspective_c2_y": {"Points": [{"interpolation": 2, "co": {"Y": -1.0, "X": 1.0}}]}, "perspective_c4_x": {"Points": [{"interpolation": 2, "co": {"Y": -1.0, "X": 1.0}}]}, "perspective_c3_x": {"Points": [{"interpolation": 2, "co": {"Y": -1.0, "X": 1.0}}]}, "crop_height": {"Points": [{"interpolation": 2, "co": {"Y": -1.0, "X": 1.0}}]}, "perspective_c1_x": {"Points": [{"interpolation": 2, "co": {"Y": -1.0, "X": 1.0}}]}, "effects": [], "time": {"Points": [{"interpolation": 2, "co": {"Y": 1.0, "X": 1.0}}]}, "file_id": "O0ARLRJY9L", "perspective_c4_y": {"Points": [{"interpolation": 2, "co": {"Y": -1.0, "X": 1.0}}]}, "end": 71.67036458333334, "gravity": 4, "display": 0, "has_video": {"Points": [{"interpolation": 2, "co": {"Y": -1.0, "X": 1.0}}]}, "id": "VM28VNF8RE"}, {"alpha": {"Points": [{"co": {"X": 1.0, "Y": 1.0}, "handle_left": {"X": 0.5, "Y": 1.0}, "handle_right": {"X": 0.5, "Y": 0.0}, "handle_type": 0, "interpolation": 0}]}, "anchor": 0, "channel_filter": {"Points": [{"co": {"X": 1.0, "Y": -1.0}, "interpolation": 2}]}, "channel_mapping": {"Points": [{"co": {"X": 1.0, "Y": -1.0}, "interpolation": 2}]}, "crop_height": {"Points": [{"co": {"X": 1.0, "Y": -1.0}, "interpolation": 2}]}, "crop_width": {"Points": [{"co": {"X": 1.0, "Y": -1.0}, "interpolation": 2}]}, "crop_x": {"Points": [{"co": {"X": 1.0, "Y": 0.0}, "interpolation": 2}]}, "crop_y": {"Points": [{"co": {"X": 1.0, "Y": 0.0}, "interpolation": 2}]}, "display": 0, "duration": 61.0, "effects": [], "end": 59.53, "gravity": 4, "has_audio": {"Points": [{"co": {"X": 1.0, "Y": -1.0}, "interpolation": 2}]}, "has_video": {"Points": [{"co": {"X": 1.0, "Y": -1.0}, "interpolation": 2}]}, "id": "SC4OJLFPDB", "layer": 3, "location_x": {"Points": [{"co": {"X": 1.0, "Y": 0.0}, "interpolation": 2}]}, "location_y": {"Points": [{"co": {"X": 1.0, "Y": 0.0}, "interpolation": 2}]}, "mixing": 0, "perspective_c1_x": {"Points": [{"co": {"X": 1.0, "Y": -1.0}, "interpolation": 2}]}, "perspective_c1_y": {"Points": [{"co": {"X": 1.0, "Y": -1.0}, "interpolation": 2}]}, "perspective_c2_x": {"Points": [{"co": {"X": 1.0, "Y": -1.0}, "interpolation": 2}]}, "perspective_c2_y": {"Points": [{"co": {"X": 1.0, "Y": -1.0}, "interpolation": 2}]}, "perspective_c3_x": {"Points": [{"co": {"X": 1.0, "Y": -1.0}, "interpolation": 2}]}, "perspective_c3_y": {"Points": [{"co": {"X": 1.0, "Y": -1.0}, "interpolation": 2}]}, "perspective_c4_x": {"Points": [{"co": {"X": 1.0, "Y": -1.0}, "interpolation": 2}]}, "perspective_c4_y": {"Points": [{"co": {"X": 1.0, "Y": -1.0}, "interpolation": 2}]}, "position": 41.709062499999995, "reader": {"acodec": "aac", "audio_bit_rate": 128000, "audio_stream_index": 1, "audio_timebase": {"den": 1000, "num": 1}, "channel_layout": 3, "channels": 2, "display_ratio": {"den": 9, "num": 16}, "duration": 61.0, "file_size": "3324260", "fps": {"den": 2, "num": 125}, "has_audio": true, "has_single_image": false, "has_video": true, "height": 1080, "interlaced_frame": false, "metadata": {"encoder": "Lavf57.84.100"}, "path": "vidsrc\\results.flv", "pixel_format": 0, "pixel_ratio": {"den": 1, "num": 1}, "sample_rate": 44100, "top_field_first": true, "type": "FFmpegReader", "vcodec": "h264", "video_bit_rate": 433008, "video_length": "3813", "video_stream_index": 0, "video_timebase": {"den": 1000, "num": 1}, "width": 1920}, "rotation": {"Points": [{"co": {"X": 1.0, "Y": 0.0}, "interpolation": 2}]}, "scale": 1, "scale_x": {"Points": [{"co": {"X": 1.0, "Y": 1.0}, "interpolation": 2}]}, "scale_y": {"Points": [{"co": {"X": 1.0, "Y": 1.0}, "interpolation": 2}]}, "shear_x": {"Points": [{"co": {"X": 1.0, "Y": 0.0}, "interpolation": 2}]}, "shear_y": {"Points": [{"co": {"X": 1.0, "Y": 0.0}, "interpolation": 2}]}, "start": 3.6399999999999997, "time": {"Points": [{"co": {"X": 1.0, "Y": 1.0}, "interpolation": 2}]}, "volume": {"Points": [{"co": {"X": 1.0, "Y": 1.0}, "interpolation": 2}]}, "wave_color": {"alpha": {"Points": [{"co": {"X": 1.0, "Y": 255.0}, "handle_left": {"X": 0.5, "Y": 1.0}, "handle_right": {"X": 0.5, "Y": 0.0}, "handle_type": 0, "interpolation": 0}]}, "blue": {"Points": [{"co": {"X": 1.0, "Y": 255.0}, "handle_left": {"X": 0.5, "Y": 1.0}, "handle_right": {"X": 0.5, "Y": 0.0}, "handle_type": 0, "interpolation": 0}]}, "green": {"Points": [{"co": {"X": 1.0, "Y": 123.0}, "handle_left": {"X": 0.5, "Y": 1.0}, "handle_right": {"X": 0.5, "Y": 0.0}, "handle_type": 0, "interpolation": 0}]}, "red": {"Points": [{"co": {"X": 1.0, "Y": 0.0}, "handle_left": {"X": 0.5, "Y": 1.0}, "handle_right": {"X": 0.5, "Y": 0.0}, "handle_type": 0, "interpolation": 0}]}}, "waveform": false, "file_id": "XS6KKBW86O", "title": "results.flv", "image": "..\\..\\..\\..\\.openshot_qt\\thumbnail\\SC4OJLFPDB-228.png"}], "files": [{"top_field_first": true, "video_bit_rate": 367463, "has_video": true, "has_audio": true, "vcodec": "h264", "acodec": "aac", "fps": {"den": 2, "num": 125}, "audio_stream_index": 1, "pixel_format": 0, "audio_timebase": {"den": 1000, "num": 1}, "type": "FFmpegReader", "file_size": "248084", "sample_rate": 44100, "channel_layout": 3, "id": "TCQFE8K6PN", "display_ratio": {"den": 9, "num": 16}, "duration": 5.0, "channels": 2, "video_length": "313", "interlaced_frame": false, "path": "vidsrc\\title.flv", "video_stream_index": 0, "has_single_image": false, "video_timebase": {"den": 1000, "num": 1}, "audio_bit_rate": 0, "pixel_ratio": {"den": 1, "num": 1}, "media_type": "video", "height": 1080, "width": 1920}, {"top_field_first": true, "video_bit_rate": 292578, "has_video": true, "has_audio": true, "vcodec": "h264", "acodec": "aac", "fps": {"den": 2, "num": 125}, "audio_stream_index": 1, "pixel_format": 0, "audio_timebase": {"den": 1000, "num": 1}, "type": "FFmpegReader", "file_size": "3764540", "sample_rate": 44100, "channel_layout": 3, "id": "O0ARLRJY9L", "display_ratio": {"den": 9, "num": 16}, "duration": 102.0, "channels": 2, "video_length": "6375", "interlaced_frame": false, "path": "vidsrc\\mlrun.flv", "video_stream_index": 0, "has_single_image": false, "video_timebase": {"den": 1000, "num": 1}, "audio_bit_rate": 0, "pixel_ratio": {"den": 1, "num": 1}, "media_type": "video", "height": 1080, "width": 1920}, {"acodec": "aac", "audio_bit_rate": 128000, "audio_stream_index": 1, "audio_timebase": {"den": 1000, "num": 1}, "channel_layout": 3, "channels": 2, "display_ratio": {"den": 9, "num": 16}, "duration": 64.0, "file_size": "3829868", "fps": {"den": 2, "num": 125}, "has_audio": true, "has_single_image": false, "has_video": true, "height": 1080, "interlaced_frame": false, "metadata": {"encoder": "Lavf57.84.100"}, "path": "vidsrc\\sdv.flv", "pixel_format": 0, "pixel_ratio": {"den": 1, "num": 1}, "sample_rate": 44100, "top_field_first": true, "type": "FFmpegReader", "vcodec": "h264", "video_bit_rate": 473305, "video_length": "4000", "video_stream_index": 0, "video_timebase": {"den": 1000, "num": 1}, "width": 1920, "media_type": "video", "id": "CQOQL1F6A8"}, {"acodec": "aac", "audio_bit_rate": 128000, "audio_stream_index": 1, "audio_timebase": {"den": 1000, "num": 1}, "channel_layout": 3, "channels": 2, "display_ratio": {"den": 9, "num": 16}, "duration": 61.0, "file_size": "3324260", "fps": {"den": 2, "num": 125}, "has_audio": true, "has_single_image": false, "has_video": true, "height": 1080, "interlaced_frame": false, "metadata": {"encoder": "Lavf57.84.100"}, "path": "vidsrc\\results.flv", "pixel_format": 0, "pixel_ratio": {"den": 1, "num": 1}, "sample_rate": 44100, "top_field_first": true, "type": "FFmpegReader", "vcodec": "h264", "video_bit_rate": 433008, "video_length": "3813", "video_stream_index": 0, "video_timebase": {"den": 1000, "num": 1}, "width": 1920, "media_type": "video", "id": "XS6KKBW86O"}], "export_path": "C:/Users/jdelrocc/Desktop", "sample_rate": 44100, "channel_layout": 3, "id": "T0", "duration": 300, "channels": 2, "effects": [{"id": "H4NGXMQAEP", "layer": 1, "title": "Transition", "type": "Mask", "position": 4.53, "start": 0, "end": 1.5899999999999996, "brightness": {"Points": [{"co": {"X": 1, "Y": 1}, "handle_left": {"X": 0.5, "Y": 1}, "handle_right": {"X": 0.5, "Y": 0}, "handle_type": 0, "interpolation": 0}, {"co": {"X": 39, "Y": -1}, "handle_left": {"X": 0.5, "Y": 1}, "handle_right": {"X": 0.5, "Y": 0}, "handle_type": 0, "interpolation": 0}]}, "contrast": {"Points": [{"co": {"X": 1, "Y": 3}, "interpolation": 2}]}, "reader": {"acodec": "", "audio_bit_rate": 0, "audio_stream_index": -1, "audio_timebase": {"den": 1, "num": 1}, "channel_layout": 4, "channels": 0, "display_ratio": {"den": 4, "num": 5}, "duration": 86400.0, "file_size": "1658880", "fps": {"den": 1, "num": 30}, "has_audio": false, "has_single_image": true, "has_video": true, "height": 576, "interlaced_frame": false, "metadata": {}, "path": "@transitions\\common\\fade.svg", "pixel_format": -1, "pixel_ratio": {"den": 1, "num": 1}, "sample_rate": 0, "top_field_first": true, "type": "QtImageReader", "vcodec": "", "video_bit_rate": 0, "video_length": "2592000", "video_stream_index": -1, "video_timebase": {"den": 30, "num": 1}, "width": 720}, "replace_image": false}, {"id": "XA1D780RV7", "layer": 0, "title": "Transition", "type": "Mask", "position": 0, "start": 0, "end": 1.5399999999999991, "brightness": {"Points": [{"co": {"X": 1, "Y": 1}, "handle_left": {"X": 0.5, "Y": 1}, "handle_right": {"X": 0.5, "Y": 0}, "handle_type": 0, "interpolation": 0}, {"co": {"X": 38, "Y": -1}, "handle_left": {"X": 0.5, "Y": 1}, "handle_right": {"X": 0.5, "Y": 0}, "handle_type": 0, "interpolation": 0}]}, "contrast": {"Points": [{"co": {"X": 1, "Y": 3}, "interpolation": 2}]}, "reader": {"acodec": "", "audio_bit_rate": 0, "audio_stream_index": -1, "audio_timebase": {"den": 1, "num": 1}, "channel_layout": 4, "channels": 0, "display_ratio": {"den": 4, "num": 5}, "duration": 86400.0, "file_size": "1658880", "fps": {"den": 1, "num": 30}, "has_audio": false, "has_single_image": true, "has_video": true, "height": 576, "interlaced_frame": false, "metadata": {}, "path": "@transitions\\common\\fade.svg", "pixel_format": -1, "pixel_ratio": {"den": 1, "num": 1}, "sample_rate": 0, "top_field_first": true, "type": "QtImageReader", "vcodec": "", "video_bit_rate": 0, "video_length": "2592000", "video_stream_index": -1, "video_timebase": {"den": 30, "num": 1}, "width": 720}, "replace_image": false}, {"layer": 2, "title": "Transition", "type": "Mask", "position": 19.4096875, "start": 0, "end": 1.5899999999999996, "brightness": {"Points": [{"co": {"X": 1, "Y": 1}, "handle_left": {"X": 0.5, "Y": 1}, "handle_right": {"X": 0.5, "Y": 0}, "handle_type": 0, "interpolation": 0}, {"co": {"X": 39, "Y": -1}, "handle_left": {"X": 0.5, "Y": 1}, "handle_right": {"X": 0.5, "Y": 0}, "handle_type": 0, "interpolation": 0}]}, "contrast": {"Points": [{"co": {"X": 1, "Y": 3}, "interpolation": 2}]}, "reader": {"acodec": "", "audio_bit_rate": 0, "audio_stream_index": -1, "audio_timebase": {"den": 1, "num": 1}, "channel_layout": 4, "channels": 0, "display_ratio": {"den": 4, "num": 5}, "duration": 86400.0, "file_size": "1658880", "fps": {"den": 1, "num": 30}, "has_audio": false, "has_single_image": true, "has_video": true, "height": 576, "interlaced_frame": false, "metadata": {}, "path": "@transitions\\common\\fade.svg", "pixel_format": -1, "pixel_ratio": {"den": 1, "num": 1}, "sample_rate": 0, "top_field_first": true, "type": "QtImageReader", "vcodec": "", "video_bit_rate": 0, "video_length": "2592000", "video_stream_index": -1, "video_timebase": {"den": 30, "num": 1}, "width": 720}, "replace_image": false, "id": "8GH0C45L2Q"}, {"layer": 3, "title": "Transition", "type": "Mask", "position": 41.709062499999995, "start": 0, "end": 1.5899999999999996, "brightness": {"Points": [{"co": {"X": 1, "Y": 1}, "handle_left": {"X": 0.5, "Y": 1}, "handle_right": {"X": 0.5, "Y": 0}, "handle_type": 0, "interpolation": 0}, {"co": {"X": 39, "Y": -1}, "handle_left": {"X": 0.5, "Y": 1}, "handle_right": {"X": 0.5, "Y": 0}, "handle_type": 0, "interpolation": 0}]}, "contrast": {"Points": [{"co": {"X": 1, "Y": 3}, "interpolation": 2}]}, "reader": {"acodec": "", "audio_bit_rate": 0, "audio_stream_index": -1, "audio_timebase": {"den": 1, "num": 1}, "channel_layout": 4, "channels": 0, "display_ratio": {"den": 4, "num": 5}, "duration": 86400.0, "file_size": "1658880", "fps": {"den": 1, "num": 30}, "has_audio": false, "has_single_image": true, "has_video": true, "height": 576, "interlaced_frame": false, "metadata": {}, "path": "@transitions\\common\\fade.svg", "pixel_format": -1, "pixel_ratio": {"den": 1, "num": 1}, "sample_rate": 0, "top_field_first": true, "type": "QtImageReader", "vcodec": "", "video_bit_rate": 0, "video_length": "2592000", "video_stream_index": -1, "video_timebase": {"den": 30, "num": 1}, "width": 720}, "replace_image": false, "id": "FQQ60TMBM0"}], "width": 1280, "profile": "HDV 720 24p", "version": {"openshot-qt": "2.4.2", "libopenshot": "0.2.0"}, "tick_pixels": 100, "progress": [], "height": 720, "import_path": "C:/Users/jdelrocc/Documents/SpectralLearn/pubs/srcpics/vidsrc"}